# Blender v2.79 (sub 0) OBJ File: ''
# www.blender.org
mtllib katana.mtl
o katana_katana_Cube.002
v 0.020003 0.003208 -0.241979
v 0.020003 -0.024011 -0.241798
v 0.020003 -0.023831 -0.268149
v 0.020003 0.002847 -0.284205
v 0.020003 0.015273 -0.271938
v 0.020003 0.015994 -0.241798
v -0.009599 0.026381 -0.241555
v -0.009599 0.025343 -0.277929
v -0.020003 0.015273 -0.271938
v -0.020003 0.015994 -0.241798
v -0.020003 0.002847 -0.284205
v -0.020003 -0.023831 -0.268149
v -0.020003 -0.024011 -0.241798
v -0.020003 0.003208 -0.241979
v 0.009599 -0.036539 -0.241555
v 0.009599 -0.036158 -0.272474
v 0.009599 0.004870 -0.295590
v 0.009599 0.025343 -0.277929
v -0.009599 0.004870 -0.295590
v -0.004982 0.132265 -1.493275
v 0.004235 0.132265 -1.493275
v 0.001668 0.135401 -1.506661
v -0.002416 0.135401 -1.506661
v -0.009599 -0.036158 -0.272474
v -0.009599 -0.036539 -0.241555
v 0.009599 0.026381 -0.241555
v -0.004982 0.119255 -1.495811
v -0.003300 0.126435 -1.509068
v -0.001228 0.137417 -1.515741
v -0.001985 0.134825 -1.516839
v -0.000374 0.142565 -1.536253
v -0.000374 0.139806 -1.536253
v 0.006319 0.127211 -1.468892
v 0.006319 0.110040 -1.472408
v 0.004235 0.119255 -1.495811
v -0.007066 0.127211 -1.468892
v 0.002553 0.126435 -1.509068
v -0.007066 0.111873 -1.384842
v 0.006319 0.111873 -1.384842
v -0.007066 0.094703 -1.388358
v -0.007066 0.110040 -1.472408
v -0.007066 0.015993 -0.635283
v -0.007066 0.029902 -0.867817
v -0.000365 -0.011977 -0.867817
v -0.000365 -0.025886 -0.635283
v -0.007066 0.065304 -1.208039
v -0.007066 0.082771 -1.206586
v 0.006319 0.082771 -1.206586
v 0.006319 0.065304 -1.208039
v 0.006319 0.094703 -1.388358
v 0.006319 0.047368 -0.866365
v 0.006319 0.029902 -0.867817
v -0.007066 0.047368 -0.866365
v -0.007066 0.033459 -0.633831
v 0.006319 0.033459 -0.633831
v -0.000368 0.084557 -1.496708
v -0.000365 0.077586 -1.473305
v 0.006319 0.024732 -0.405324
v 0.006319 0.007266 -0.406776
v 0.006319 0.015993 -0.635283
v -0.007066 0.024732 -0.405324
v 0.006319 0.023458 -0.315264
v 0.006319 0.007053 -0.315315
v -0.007066 0.023458 -0.315264
v -0.007066 0.007266 -0.406776
v -0.009973 0.007521 -0.273724
v -0.009973 0.023582 -0.275559
v -0.007066 0.007053 -0.315315
v 0.009225 0.023582 -0.275559
v -0.000365 0.060579 -1.387582
v 0.009225 0.007521 -0.273724
v 0.000478 0.137417 -1.515741
v 0.001235 0.134825 -1.516839
v -0.000365 0.027303 -1.207263
v -0.000361 -0.034770 -0.269314
v -0.000395 -0.035563 -0.315065
v -0.000377 -0.034187 -0.406776
v -0.000367 0.099490 -1.515345
v -0.031481 0.089159 -0.231804
v -0.062962 0.059522 -0.231804
v 0.000000 0.000024 -0.231804
v -0.010939 0.027039 -0.231804
v -0.021879 0.018828 -0.231804
v -0.021879 0.024817 0.267982
v -0.010939 0.036181 0.267982
v -0.020683 0.023703 0.276523
v -0.010342 0.034481 0.276523
v 0.010939 -0.035209 -0.231804
v 0.021879 -0.021950 -0.231804
v 0.021879 -0.015961 0.267982
v 0.010939 -0.026066 0.267982
v 0.021879 0.018828 -0.231804
v 0.021879 0.024817 0.267982
v -0.021879 -0.021950 -0.231804
v -0.021879 -0.015961 0.267982
v 0.020683 -0.014847 0.276523
v 0.010342 -0.024366 0.276523
v 0.020683 0.023703 0.276523
v -0.020683 -0.014847 0.276523
v 0.015847 -0.010340 0.284370
v 0.015847 0.019196 0.284370
v 0.015847 0.019196 0.291988
v 0.015847 -0.010340 0.291988
v -0.015847 0.019196 0.284370
v -0.015847 -0.010340 0.284370
v -0.015847 -0.010340 0.291988
v -0.015847 0.019196 0.291988
v -0.007924 0.027601 0.284370
v -0.007924 0.027601 0.291988
v 0.007924 -0.017486 0.284370
v 0.007924 -0.017486 0.291988
v -0.007924 -0.017486 0.284370
v -0.007924 -0.017486 0.291988
v 0.000000 -0.019444 0.284370
v 0.000000 -0.019444 0.291988
v 0.007924 0.027601 0.284370
v 0.007924 0.027601 0.291988
v 0.000000 0.029904 0.284370
v 0.000000 0.029904 0.291988
v -0.010939 -0.026066 0.267982
v -0.010342 -0.024366 0.276523
v 0.000000 -0.028835 0.267982
v 0.000000 -0.026974 0.276523
v -0.010939 -0.035209 -0.231804
v 0.000000 -0.038842 -0.231804
v 0.010939 0.036181 0.267982
v 0.010342 0.034481 0.276523
v 0.000000 0.039295 0.267982
v 0.000000 0.037434 0.276523
v 0.010939 0.027039 -0.231804
v 0.000000 0.029288 -0.231804
v -0.031481 -0.089977 -0.231804
v 0.000000 -0.098786 -0.231804
v 0.031481 -0.089977 -0.231804
v 0.031481 -0.089977 -0.249543
v 0.062962 -0.057829 -0.249543
v 0.062962 -0.057829 -0.231804
v -0.062962 0.059522 -0.249543
v -0.062962 -0.057829 -0.249543
v -0.062962 -0.057829 -0.231804
v -0.031481 0.089159 -0.249543
v 0.062962 0.059522 -0.249543
v 0.062962 0.059522 -0.231804
v 0.031481 0.089159 -0.249543
v 0.031481 0.089159 -0.231804
v 0.000000 0.097279 -0.249543
v 0.000000 0.097279 -0.231804
v -0.031481 -0.089977 -0.249543
v 0.000000 -0.098786 -0.249543
v -0.006935 -0.002035 0.297066
v -0.006935 0.010891 0.297066
v 0.006935 0.010891 0.297066
v 0.006935 -0.002035 0.297066
v 0.003468 -0.004808 0.297066
v -0.003468 -0.004808 0.297066
v 0.000000 -0.005568 0.297066
v -0.003468 0.014923 0.297066
v 0.000000 0.016028 0.297066
v 0.003468 0.014923 0.297066
v 0.000000 0.004840 0.297066
v 0.000000 0.000024 -0.249543
vt 0.933989 0.920912
vt 0.933602 0.867378
vt 0.881786 0.868450
vt 0.850936 0.921352
vt 0.875400 0.945455
vt 0.934692 0.946053
vt 0.935453 0.966473
vt 0.863892 0.965422
vt 0.875400 0.945455
vt 0.934692 0.946053
vt 0.850936 0.921352
vt 0.881786 0.868450
vt 0.933602 0.867378
vt 0.933989 0.920912
vt 0.933740 0.842735
vt 0.872944 0.844325
vt 0.828603 0.925640
vt 0.863892 0.965422
vt 0.828603 0.925640
vt 0.505772 0.951715
vt 0.510002 0.951738
vt 0.509408 0.962696
vt 0.506415 0.962696
vt 0.872944 0.844325
vt 0.933740 0.842735
vt 0.935453 0.966473
vt 0.499615 0.952780
vt 0.499743 0.962696
vt 0.506055 0.969576
vt 0.499895 0.969576
vt 0.507221 0.985452
vt 0.506284 0.985323
vt 0.510170 0.933048
vt 0.516345 0.935191
vt 0.516125 0.952871
vt 0.505506 0.932998
vt 0.516025 0.962696
vt 0.505763 0.868950
vt 0.510561 0.869002
vt 0.499410 0.870906
vt 0.499298 0.935008
vt 0.499734 0.293124
vt 0.499476 0.471319
vt 0.484276 0.470400
vt 0.484536 0.292509
vt 0.499296 0.732461
vt 0.505637 0.731936
vt 0.510458 0.731987
vt 0.516790 0.732648
vt 0.516881 0.871094
vt 0.510615 0.470638
vt 0.516925 0.471506
vt 0.505799 0.470586
vt 0.506029 0.292272
vt 0.510829 0.292324
vt 0.488555 0.952662
vt 0.487296 0.934510
vt 0.510293 0.117354
vt 0.516559 0.118437
vt 0.517110 0.293311
vt 0.505496 0.117303
vt 0.510182 0.048073
vt 0.516163 0.048270
vt 0.505267 0.048020
vt 0.499213 0.118251
vt 0.499482 0.039694
vt 0.505109 0.039682
vt 0.499283 0.048089
vt 0.510372 0.039680
vt 0.487091 0.868928
vt 0.516201 0.039690
vt 0.509867 0.969576
vt 0.515961 0.969576
vt 0.485539 0.730615
vt 0.531201 0.039713
vt 0.531616 0.048443
vt 0.531605 0.118383
vt 0.532314 0.293014
vt 0.484171 0.117875
vt 0.483832 0.047931
vt 0.484051 0.039723
vt 0.492990 0.967443
vt 0.532137 0.470905
vt 0.530573 0.731091
vt 0.529228 0.869372
vt 0.527964 0.934947
vt 0.526414 0.953067
vt 0.521741 0.967752
vt 0.508161 0.985343
vt 0.842665 0.797709
vt 0.792357 0.750329
vt 0.893055 0.655225
vt 0.441410 0.986733
vt 0.408698 0.986733
vt 0.408698 0.007339
vt 0.441410 0.007339
vt 0.721227 0.038640
vt 0.721231 0.079584
vt 0.704461 0.080087
vt 0.704453 0.039123
vt 0.212277 0.986733
vt 0.179565 0.986733
vt 0.179565 0.007339
vt 0.212277 0.007339
vt 0.078285 0.986733
vt 0.078285 0.007339
vt 0.310425 0.986733
vt 0.310425 0.007339
vt 0.721237 0.282732
vt 0.721235 0.321413
vt 0.704472 0.321066
vt 0.704476 0.282597
vt 0.721231 0.427225
vt 0.704460 0.426761
vt 0.721235 0.185395
vt 0.704472 0.185781
vt 0.566246 0.184407
vt 0.566246 0.077511
vt 0.597198 0.076412
vt 0.596684 0.184407
vt 0.566246 0.427645
vt 0.566246 0.320749
vt 0.596684 0.320749
vt 0.596684 0.427645
vt 0.566246 0.469455
vt 0.596684 0.469455
vt 0.566246 0.223030
vt 0.596684 0.223030
vt 0.566246 0.282125
vt 0.596684 0.282125
vt 0.566246 0.252578
vt 0.596684 0.252578
vt 0.566198 0.035522
vt 0.597969 0.034475
vt 0.566138 0.005388
vt 0.598355 0.004519
vt 0.566246 0.499334
vt 0.596684 0.499334
vt 0.721237 0.224076
vt 0.704476 0.224251
vt 0.721237 0.253401
vt 0.704476 0.253424
vt 0.277698 0.986733
vt 0.277698 0.007339
vt 0.244987 0.986733
vt 0.244987 0.007339
vt 0.721227 0.468162
vt 0.704453 0.467725
vt 0.721225 0.497685
vt 0.704447 0.497232
vt 0.721225 0.009118
vt 0.704447 0.009616
vt 0.045574 0.986733
vt 0.045574 0.007339
vt 0.012863 0.986733
vt 0.012863 0.007339
vt 0.474136 0.986733
vt 0.474136 0.007339
vt 0.842665 0.511356
vt 0.893055 0.497279
vt 0.792357 0.386310
vt 0.748875 0.386310
vt 0.748875 0.314385
vt 0.792357 0.314385
vt 0.748875 0.750329
vt 0.748875 0.562750
vt 0.792357 0.562750
vt 0.792357 0.819439
vt 0.748875 0.819439
vt 0.748875 0.126796
vt 0.792357 0.126796
vt 0.792357 0.992497
vt 0.748875 0.992497
vt 0.748875 0.923386
vt 0.792357 0.923386
vt 0.748875 0.871413
vt 0.792357 0.871413
vt 0.748875 0.490825
vt 0.792357 0.490825
vt 0.748875 0.438562
vt 0.792357 0.438562
vt 0.586170 0.960136
vt 0.697724 0.960136
vt 0.666623 0.926475
vt 0.617802 0.926475
vt 0.697724 0.840420
vt 0.586170 0.840420
vt 0.617802 0.874082
vt 0.666623 0.874082
vt 0.724714 0.870349
vt 0.677097 0.887180
vt 0.724714 0.930207
vt 0.677097 0.913376
vt 0.732109 0.900278
vt 0.679967 0.900278
vt 0.554426 0.930207
vt 0.602573 0.913376
vt 0.545728 0.900278
vt 0.598400 0.900278
vt 0.554426 0.870349
vt 0.602573 0.887180
vt 0.689054 0.426420
vt 0.689070 0.320880
vt 0.689044 0.467705
vt 0.689036 0.497187
vt 0.689044 0.039148
vt 0.689036 0.009666
vt 0.689054 0.080433
vt 0.689070 0.185989
vt 0.689072 0.224190
vt 0.689072 0.253431
vt 0.689072 0.282679
vt 0.640656 0.900278
vt 0.893055 0.810690
vt 0.993671 0.750329
vt 0.943363 0.797709
vt 0.943363 0.511356
vt 0.993671 0.562750
vt 0.648176 0.810690
vt 0.597868 0.797709
vt 0.648176 0.655225
vt 0.698567 0.511356
vt 0.698567 0.797709
vt 0.648176 0.497279
vt 0.547561 0.750329
vt 0.547561 0.562750
vt 0.597868 0.511356
vn 1.0000 0.0000 0.0000
vn -0.7036 0.7104 -0.0188
vn -1.0000 0.0000 0.0000
vn 0.7673 -0.6413 -0.0063
vn 0.6696 -0.3720 -0.6429
vn 0.7102 0.4737 -0.5208
vn -0.7102 0.4737 -0.5208
vn 0.0000 0.9736 0.2281
vn 0.0000 0.9761 0.2173
vn -0.6696 -0.3720 -0.6429
vn 0.0000 -0.4909 -0.8712
vn -0.7673 -0.6413 -0.0063
vn 0.0000 -0.9999 -0.0123
vn 0.7036 0.7104 -0.0188
vn 0.0000 0.9996 -0.0285
vn -0.9890 0.0692 -0.1309
vn -0.9866 0.1554 -0.0506
vn -0.9891 0.1449 -0.0243
vn 0.9965 0.0164 -0.0820
vn 0.0000 0.9792 0.2030
vn 0.9890 0.0693 -0.1309
vn 0.0000 0.9838 0.1795
vn -0.9874 -0.1583 -0.0077
vn -0.9874 -0.1580 -0.0099
vn -0.9861 -0.1652 -0.0181
vn -0.9874 -0.1583 -0.0076
vn -0.9965 0.0164 -0.0820
vn 0.0000 0.9946 0.1035
vn 0.0000 0.9869 0.1611
vn 0.0000 0.9982 0.0597
vn -0.9816 -0.1627 -0.0999
vn 0.0000 0.9993 0.0382
vn 0.0000 0.9999 0.0141
vn -0.9974 -0.0039 -0.0713
vn 0.0000 1.0000 -0.0031
vn -0.9797 -0.1971 -0.0376
vn 0.9974 -0.0039 -0.0713
vn 0.0000 0.6532 -0.7572
vn 0.0000 0.9762 0.2168
vn 0.9865 0.1555 -0.0508
vn -0.9825 -0.1833 -0.0318
vn 0.9813 -0.1900 -0.0303
vn 0.9874 -0.1580 -0.0036
vn 0.9874 -0.1580 -0.0035
vn 0.9874 -0.1581 -0.0076
vn 0.9874 -0.1581 -0.0077
vn -0.9860 -0.1656 -0.0182
vn -0.9875 -0.1578 -0.0037
vn -0.9814 -0.1898 -0.0295
vn 0.9875 -0.1575 -0.0013
vn 0.0000 0.9699 0.2434
vn -0.9876 -0.1570 -0.0015
vn -0.9864 -0.1061 -0.1256
vn 0.9875 -0.1576 -0.0098
vn 0.9861 -0.1649 -0.0181
vn 0.9861 -0.1652 -0.0182
vn 0.9826 -0.1828 -0.0318
vn 0.9798 -0.1967 -0.0375
vn 0.9817 -0.1623 -0.0999
vn 0.9865 -0.1058 -0.1253
vn 0.9943 -0.0491 -0.0950
vn 0.9891 0.1449 -0.0242
vn -0.9942 -0.0496 -0.0952
vn -0.9733 -0.0540 -0.2230
vn 0.9734 -0.0536 -0.2229
vn -0.0000 0.0000 1.0000
vn -0.6667 0.7452 -0.0113
vn -0.7083 0.6808 0.1865
vn 0.7299 -0.6835 0.0103
vn 0.6657 -0.7219 0.1888
vn 0.9903 0.0000 0.1387
vn -0.9903 0.0000 0.1387
vn -0.7277 0.6859 0.0000
vn 0.6698 -0.7426 0.0000
vn -0.6698 -0.7426 0.0000
vn -0.2399 -0.9708 0.0000
vn 0.2399 -0.9708 0.0000
vn 0.7277 0.6859 0.0000
vn 0.2791 0.9603 0.0000
vn -0.2791 0.9603 0.0000
vn -0.6657 -0.7219 0.1888
vn -0.2397 -0.9487 0.2061
vn 0.2397 -0.9487 0.2061
vn -0.7299 -0.6835 0.0103
vn -0.2808 -0.9596 0.0184
vn 0.2808 -0.9596 0.0184
vn 0.7083 0.6808 0.1865
vn 0.2683 0.9411 0.2056
vn -0.2683 0.9411 0.2056
vn 0.6667 0.7452 -0.0113
vn 0.2380 0.9711 -0.0186
vn -0.2380 0.9711 -0.0186
vn 0.7145 -0.6997 0.0000
vn -0.6855 0.7281 0.0000
vn 0.6855 0.7281 0.0000
vn 0.2498 0.9683 0.0000
vn -0.2498 0.9683 0.0000
vn -0.7145 -0.6997 0.0000
vn -0.2695 -0.9630 0.0000
vn 0.2695 -0.9630 0.0000
vn -0.4951 0.0000 0.8689
vn 0.4951 0.0000 0.8689
vn 0.2506 -0.2877 0.9243
vn -0.2506 -0.2877 0.9243
vn -0.0821 -0.3440 0.9354
vn 0.0821 -0.3440 0.9354
vn -0.2871 0.2629 0.9211
vn -0.1018 0.3404 0.9347
vn 0.1018 0.3404 0.9347
vn 0.2871 0.2629 0.9211
vn 0.8513 0.0000 0.5247
vn 0.5559 0.5293 0.6410
vn 0.2030 0.7055 0.6790
vn -0.2030 0.7055 0.6790
vn -0.5559 0.5293 0.6410
vn -0.8513 0.0000 0.5247
vn -0.5142 -0.5635 0.6466
vn -0.1778 -0.7111 0.6803
vn 0.1777 -0.7111 0.6803
vn 0.5142 -0.5635 0.6466
vn 0.0000 0.0000 -1.0000
usemtl None
s 1
f 1/1/1 2/2/1 3/3/1 4/4/1 5/5/1 6/6/1
f 7/7/2 8/8/2 9/9/2 10/10/2
f 10/10/3 9/9/3 11/11/3 12/12/3 13/13/3 14/14/3
f 15/15/4 16/16/4 3/3/4 2/2/4
f 17/17/5 4/4/5 3/3/5 16/16/5
f 18/18/6 5/5/6 4/4/6 17/17/6
f 9/9/7 8/8/7 19/19/7 11/11/7
f 20/20/8 21/21/8 22/22/9 23/23/9
f 11/11/10 19/19/10 24/24/10 12/12/10
f 19/19/11 17/17/11 16/16/11 24/24/11
f 13/13/12 12/12/12 24/24/12 25/25/12
f 25/25/13 24/24/13 16/16/13 15/15/13
f 6/6/14 5/5/14 18/18/14 26/26/14
f 26/26/15 18/18/15 8/8/15 7/7/15
f 27/27/16 20/20/16 23/23/16 28/28/16
f 28/28/17 23/23/17 29/29/17 30/30/17
f 30/30/18 29/29/18 31/31/18 32/32/18
f 33/33/19 34/34/19 35/35/19 21/21/19
f 36/36/20 33/33/20 21/21/20 20/20/20
f 21/21/21 35/35/21 37/37/21 22/22/21
f 38/38/22 39/39/22 33/33/22 36/36/22
f 40/40/3 38/38/3 36/36/3 41/41/3
f 42/42/23 43/43/24 44/44/25 45/45/26
f 41/41/27 36/36/27 20/20/27 27/27/27
f 46/46/3 47/47/3 38/38/3 40/40/3
f 48/48/1 49/49/1 50/50/1 39/39/1
f 39/39/1 50/50/1 34/34/1 33/33/1
f 51/51/1 52/52/1 49/49/1 48/48/1
f 53/53/28 51/51/28 48/48/28 47/47/28
f 47/47/29 48/48/29 39/39/29 38/38/29
f 54/54/30 55/55/30 51/51/30 53/53/30
f 42/42/3 54/54/3 53/53/3 43/43/3
f 43/43/3 53/53/3 47/47/3 46/46/3
f 41/41/31 27/27/31 56/56/31 57/57/31
f 58/58/1 59/59/1 60/60/1 55/55/1
f 61/61/32 58/58/32 55/55/32 54/54/32
f 55/55/1 60/60/1 52/52/1 51/51/1
f 62/62/1 63/63/1 59/59/1 58/58/1
f 64/64/33 62/62/33 58/58/33 61/61/33
f 65/65/3 61/61/3 54/54/3 42/42/3
f 66/66/34 67/67/34 64/64/34 68/68/34
f 67/67/35 69/69/35 62/62/35 64/64/35
f 40/40/36 41/41/36 57/57/36 70/70/36
f 68/68/3 64/64/3 61/61/3 65/65/3
f 69/69/37 71/71/37 63/63/37 62/62/37
f 18/18/38 17/17/38 19/19/38 8/8/38
f 23/23/9 22/22/9 72/72/39 29/29/39
f 22/22/40 37/37/40 73/73/40 72/72/40
f 46/46/41 40/40/41 70/70/41 74/74/41
f 63/63/42 71/71/42 75/75/42 76/76/42
f 59/59/43 77/77/44 45/78/45 60/60/46
f 43/43/24 46/46/47 74/74/47 44/44/25
f 65/65/48 42/42/23 45/45/26 77/79/48
f 66/66/49 68/68/49 76/80/49 75/81/49
f 63/63/50 76/76/50 77/77/44 59/59/43
f 72/72/51 31/31/51 29/29/51
f 68/68/52 65/65/48 77/79/48 76/80/52
f 27/27/53 28/28/53 78/82/53 56/56/53
f 52/52/54 60/60/46 45/78/45 44/83/55
f 52/52/54 44/83/55 74/84/56 49/49/56
f 50/50/57 49/49/57 74/84/57 70/85/57
f 34/34/58 50/50/58 70/85/58 57/86/58
f 34/34/59 57/86/59 56/87/59 35/35/59
f 37/37/60 35/35/60 56/87/60 78/88/60
f 78/88/61 32/89/61 73/73/61
f 73/73/62 32/89/62 31/31/62 72/72/62
f 32/32/63 78/82/63 30/30/63
f 30/30/64 78/82/64 28/28/64
f 73/73/65 37/37/65 78/88/65
f 79/90/66 80/91/66 81/92/66
f 82/93/67 83/94/67 84/95/67 85/96/67
f 85/97/68 84/98/68 86/99/68 87/100/68
f 88/101/69 89/102/69 90/103/69 91/104/69
f 89/102/1 92/105/1 93/106/1 90/103/1
f 83/94/3 94/107/3 95/108/3 84/95/3
f 91/109/70 90/110/70 96/111/70 97/112/70
f 90/110/71 93/113/71 98/114/71 96/111/71
f 84/98/72 95/115/72 99/116/72 86/99/72
f 100/117/1 101/118/1 102/119/1 103/120/1
f 104/121/3 105/122/3 106/123/3 107/124/3
f 108/125/73 104/121/73 107/124/73 109/126/73
f 110/127/74 100/117/74 103/120/74 111/128/74
f 105/122/75 112/129/75 113/130/75 106/123/75
f 112/129/76 114/131/76 115/132/76 113/130/76
f 114/131/77 110/127/77 111/128/77 115/132/77
f 101/118/78 116/133/78 117/134/78 102/119/78
f 116/133/79 118/135/79 119/136/79 117/134/79
f 118/137/80 108/125/80 109/126/80 119/138/80
f 95/115/81 120/139/81 121/140/81 99/116/81
f 120/139/82 122/141/82 123/142/82 121/140/82
f 122/141/83 91/109/83 97/112/83 123/142/83
f 94/107/84 124/143/84 120/144/84 95/108/84
f 124/143/85 125/145/85 122/146/85 120/144/85
f 125/145/86 88/101/86 91/104/86 122/146/86
f 93/113/87 126/147/87 127/148/87 98/114/87
f 126/147/88 128/149/88 129/150/88 127/148/88
f 128/151/89 85/97/89 87/100/89 129/152/89
f 92/105/90 130/153/90 126/154/90 93/106/90
f 130/153/91 131/155/91 128/156/91 126/154/91
f 131/157/92 82/93/92 85/96/92 128/158/92
f 132/159/66 133/160/66 81/92/66
f 134/161/93 135/162/93 136/163/93 137/164/93
f 80/91/3 138/165/3 139/166/3 140/167/3
f 79/168/94 141/169/94 138/165/94 80/91/94
f 137/164/1 136/163/1 142/170/1 143/171/1
f 143/172/95 142/173/95 144/174/95 145/175/95
f 145/175/96 144/174/96 146/176/96 147/177/96
f 147/177/97 146/176/97 141/169/97 79/168/97
f 140/167/98 139/166/98 148/178/98 132/179/98
f 132/179/99 148/178/99 149/180/99 133/181/99
f 133/181/100 149/180/100 135/162/100 134/161/100
f 107/182/101 106/183/101 150/184/101 151/185/101
f 103/186/102 102/187/102 152/188/102 153/189/102
f 111/190/103 103/186/103 153/189/103 154/191/103
f 106/183/104 113/192/104 155/193/104 150/184/104
f 113/192/105 115/194/105 156/195/105 155/193/105
f 115/194/106 111/190/106 154/191/106 156/195/106
f 109/196/107 107/182/107 151/185/107 157/197/107
f 119/198/108 109/196/108 157/197/108 158/199/108
f 117/200/109 119/198/109 158/199/109 159/201/109
f 102/187/110 117/200/110 159/201/110 152/188/110
f 96/111/111 98/114/111 101/202/111 100/203/111
f 98/114/112 127/148/112 116/204/112 101/202/112
f 127/148/113 129/150/113 118/205/113 116/204/113
f 129/152/114 87/100/114 108/206/114 118/207/114
f 87/100/115 86/99/115 104/208/115 108/206/115
f 86/99/116 99/116/116 105/209/116 104/208/116
f 99/116/117 121/140/117 112/210/117 105/209/117
f 121/140/118 123/142/118 114/211/118 112/210/118
f 123/142/119 97/112/119 110/212/119 114/211/119
f 97/112/120 96/111/120 100/203/120 110/212/120
f 159/201/66 158/199/66 160/213/66
f 152/188/66 159/201/66 160/213/66
f 155/193/66 156/195/66 160/213/66
f 157/197/66 151/185/66 160/213/66
f 153/189/66 152/188/66 160/213/66
f 150/184/66 155/193/66 160/213/66
f 154/191/66 153/189/66 160/213/66
f 158/199/66 157/197/66 160/213/66
f 156/195/66 154/191/66 160/213/66
f 151/185/66 150/184/66 160/213/66
f 140/167/66 132/159/66 81/92/66
f 147/214/66 79/90/66 81/92/66
f 143/215/66 145/216/66 81/92/66
f 134/217/66 137/218/66 81/92/66
f 145/216/66 147/214/66 81/92/66
f 80/91/66 140/167/66 81/92/66
f 133/160/66 134/217/66 81/92/66
f 137/218/66 143/215/66 81/92/66
f 146/219/121 144/220/121 161/221/121
f 148/222/121 139/166/121 161/221/121
f 138/165/121 141/223/121 161/221/121
f 139/166/121 138/165/121 161/221/121
f 141/223/121 146/219/121 161/221/121
f 149/224/121 148/222/121 161/221/121
f 142/225/121 136/226/121 161/221/121
f 135/227/121 149/224/121 161/221/121
f 136/226/121 135/227/121 161/221/121
f 144/220/121 142/225/121 161/221/121
